# xmcd
#
# Track frame offsets: 
#        150
#        8263
#        37731
#        65241
#        92956
#        112046
#        138268
#        158376
#        182338
#        206840
#        222882
#
# Disc length: 3451 seconds
#
# Revision: 0
# Processed by: cddbd v1.5.2PL0 Copyright (c) Steve Scherf et al.
# Submitted via: ExactAudioCopyFreeDBPlugin 1.0
#
DISCID=8a0d790b
DTITLE=We Are One Brass Band - Maniere
DYEAR=2010
DGENRE=New Orleans Brass Band
TTITLE0=La Vida Part 1
TTITLE1=Black and Blues
TTITLE2=I Came Out
TTITLE3=Just My Imagination
TTITLE4=Keep It Flowin'
TTITLE5=Ladies Night
TTITLE6=Snowball
TTITLE7=Cause You Love Me Baby
TTITLE8=Who Do You Love
TTITLE9=La Vida Part 2
TTITLE10=Word On The Street
EXTD=
EXTT0=
EXTT1=
EXTT2=
EXTT3=
EXTT4=
EXTT5=
EXTT6=
EXTT7=
EXTT8=
EXTT9=
EXTT10=
PLAYORDER=
